P3
# CREATOR: GIMP PNM Filter Version 1.1
8 4
255
0 0 0
27 27 27
62 62 62
95 95 95
130 130 130
163 163 163
198 198 198
232 232 232
0 0 0
0 0 0
0 0 0
0 0 0
0 0 0
0 0 0
0 0 0
0 0 0
255 255 255
255 255 255
255 255 255
255 255 255
255 255 255
255 255 255
255 255 255
255 255 255
100 100 100
100 100 100
100 100 100
100 100 100
100 100 100
255 255 255
255 255 255
255 255 255
